<svg width="46" height="46" viewBox="0 0 46 46" fill="none" xmlns="http://www.w3.org/2000/svg">
    <path fill-rule="evenodd" clip-rule="evenodd" d="M23 0C10.2983 0 0 10.2983 0 23C0 35.7017 10.2983 46 23 46C35.7017 46 46 35.7017 46 23C46 10.2983 35.7017 0 23 0ZM23 2.875C34.0957 2.875 43.125 11.9043 43.125 23C43.125 34.0957 34.0957 43.125 23 43.125C11.9043 43.125 2.875 34.0957 2.875 23C2.875 11.9043 11.9043 2.875 23 2.875ZM34.3257 29.5107L34.441 29.8614C34.709 30.668 34.4385 31.8228 33.8372 32.4215L32.1939 34.0649C31.9008 34.358 31.0415 34.5409 31.0139 34.5409C25.8158 34.5861 20.8105 32.5443 17.133 28.8669C13.4454 25.1769 11.4012 20.1542 11.4563 14.9386C11.4563 14.9361 11.6442 14.1019 11.9373 13.8113L13.5807 12.168C14.1819 11.5642 15.3367 11.2911 16.1459 11.5617L16.4917 11.677C17.2983 11.9475 18.1451 12.8393 18.368 13.661L19.1948 16.6947C19.4178 17.5188 19.1171 18.6912 18.5159 19.2924L17.4186 20.3897C18.4959 24.3778 21.6248 27.5066 25.6129 28.5863L26.7102 27.489C27.3139 26.8853 28.4863 26.5847 29.308 26.8077L32.3416 27.6369C33.1633 27.8624 34.0551 28.7041 34.3257 29.5107Z" fill="url(#paint0_linear)"/>
    <defs>
        <linearGradient id="paint0_linear" x1="0" y1="0" x2="0" y2="46" gradientUnits="userSpaceOnUse">
            <stop stop-color="#EF473A"/>
            <stop offset="1" stop-color="#CC2E3E"/>
        </linearGradient>
    </defs>
</svg>
