<svg width="45" height="40" viewBox="0 0 45 40" fill="none" xmlns="http://www.w3.org/2000/svg">
    <path fill-rule="evenodd" clip-rule="evenodd" d="M33.8986 16.692C33.8989 16.6953 33.8992 16.6986 33.8996 16.7019C33.9035 16.7353 33.9058 16.7686 33.9064 16.8019C33.9066 16.8078 33.9076 16.8134 33.9076 16.8193V28.8585C33.9076 29.2032 33.7306 29.5237 33.4388 29.7074L28.2205 32.9934C28.0575 33.096 27.8719 33.1477 27.6859 33.1477C27.5192 33.1477 27.3523 33.1063 27.2011 33.0228C26.8812 32.8462 26.6827 32.5098 26.6827 32.1444V20.689L11.4662 12.0397L2.95597 17.3986L17.223 25.5084L24.1416 21.1518C24.6104 20.8565 25.2301 20.9973 25.5251 21.4662C25.8204 21.9351 25.6796 22.5546 25.2107 22.8497L17.784 27.5263C17.6209 27.629 17.4353 27.6806 17.2494 27.6806C17.0786 27.6806 16.9076 27.6371 16.7537 27.5495L0.507509 18.3149C0.200712 18.1405 0.0081863 17.8181 0.000260544 17.4653C-0.00776554 17.1126 0.170113 16.7816 0.468683 16.5937L10.9053 10.0217L10.9124 10.0172L16.1241 6.73547L16.1305 6.73145L26.56 0.16401C26.873 -0.0329304 27.269 -0.0419598 27.5903 0.140834L43.8364 9.37545C44.1432 9.54981 44.3358 9.87226 44.3437 10.225C44.3517 10.5778 44.1738 10.9087 43.8753 11.0966L36.4485 15.7731C35.9796 16.0684 35.3602 15.9276 35.065 15.4587C34.7698 14.9899 34.9105 14.3704 35.3794 14.0752L41.3881 10.2916L27.121 2.18207L18.6108 7.54088L33.3914 15.9425C33.4298 15.9639 33.4666 15.9885 33.5023 16.015C33.5094 16.0201 33.516 16.0255 33.5228 16.0308C33.5495 16.0517 33.5751 16.074 33.5998 16.0978C33.6053 16.103 33.6111 16.108 33.6164 16.1134C33.6448 16.142 33.6719 16.1722 33.697 16.2047C33.6986 16.2068 33.7001 16.209 33.7015 16.2112C33.7029 16.2132 33.7042 16.2152 33.7057 16.2172C33.7222 16.2392 33.7384 16.2613 33.7533 16.2849C33.757 16.2908 33.7598 16.2969 33.7633 16.3029C33.7699 16.3138 33.7758 16.3249 33.782 16.3361C33.796 16.3616 33.8089 16.3874 33.8206 16.4137C33.8217 16.4163 33.8228 16.4188 33.824 16.4213C33.8274 16.429 33.8308 16.4366 33.8339 16.4444C33.8487 16.4808 33.8617 16.5177 33.8719 16.555L33.8723 16.5563C33.8833 16.5962 33.891 16.6366 33.8968 16.6772C33.8975 16.6821 33.8981 16.687 33.8986 16.692ZM28.6892 20.1054V30.3272L31.9009 28.3048V18.6367L30.7714 19.348C30.6054 19.4525 30.4204 19.5024 30.2378 19.5024C29.9044 19.5024 29.5785 19.3365 29.3879 19.0335C29.0926 18.5647 29.2334 17.9452 29.7023 17.65L30.9515 16.8635L16.6845 8.75383L13.3925 10.8269L28.1817 19.2333C28.4954 19.4116 28.6892 19.7445 28.6892 20.1054Z" fill="url(#paint0_linear)"/>
    <path fill-rule="evenodd" clip-rule="evenodd" d="M42.8067 13.4117L35.38 18.0882C34.9111 18.3833 34.7703 19.0028 35.0656 19.4717C35.2562 19.7747 35.5821 19.9405 35.9155 19.9405C36.0981 19.9405 36.2831 19.8906 36.4491 19.7861L43.8758 15.1096C44.3447 14.8144 44.4855 14.1949 44.1902 13.7261C43.8951 13.2572 43.2755 13.1163 42.8067 13.4117Z" fill="url(#paint1_linear)"/>
    <path fill-rule="evenodd" clip-rule="evenodd" d="M24.1418 25.1648L17.2232 29.5214L1.49918 20.5836C1.01782 20.3099 0.405026 20.4781 0.131237 20.9601C-0.142553 21.4417 0.0258943 22.0542 0.50766 22.328L16.7539 31.5626C16.9078 31.6502 17.0787 31.6937 17.2496 31.6937C17.4355 31.6937 17.6211 31.6421 17.7841 31.5394L25.2108 26.8628C25.6798 26.5677 25.8205 25.9482 25.5253 25.4793C25.2302 25.0103 24.6106 24.8695 24.1418 25.1648Z" fill="url(#paint2_linear)"/>
    <path fill-rule="evenodd" clip-rule="evenodd" d="M42.8067 17.4247L35.38 22.1012C34.9111 22.3964 34.7703 23.0159 35.0656 23.4847C35.2562 23.7877 35.5821 23.9535 35.9155 23.9535C36.0981 23.9535 36.2831 23.9037 36.4491 23.7991L43.8758 19.1226C44.3447 18.8275 44.4855 18.2079 44.1902 17.7391C43.8951 17.2701 43.2755 17.1293 42.8067 17.4247Z" fill="url(#paint3_linear)"/>
    <path fill-rule="evenodd" clip-rule="evenodd" d="M24.1418 29.1778L17.2232 33.5344L1.49918 24.5966C1.01782 24.3229 0.405026 24.4911 0.131237 24.9731C-0.142553 25.4547 0.0258943 26.0672 0.50766 26.341L16.7539 35.5756C16.9078 35.6632 17.0787 35.7067 17.2496 35.7067C17.4355 35.7067 17.6211 35.6551 17.7841 35.5524L25.2108 30.8758C25.6798 30.5807 25.8205 29.9612 25.5253 29.4923C25.2302 29.0232 24.6106 28.8825 24.1418 29.1778Z" fill="url(#paint4_linear)"/>
    <path fill-rule="evenodd" clip-rule="evenodd" d="M42.8067 21.4378L35.38 26.1143C34.9111 26.4094 34.7703 27.0289 35.0656 27.4978C35.2562 27.8007 35.5821 27.9666 35.9155 27.9666C36.0981 27.9666 36.2831 27.9167 36.4491 27.8122L43.8758 23.1357C44.3447 22.8405 44.4855 22.221 44.1902 21.7522C43.8951 21.2833 43.2755 21.1425 42.8067 21.4378Z" fill="url(#paint5_linear)"/>
    <path fill-rule="evenodd" clip-rule="evenodd" d="M24.1418 33.1909L17.2232 37.5474L1.49918 28.6097C1.01782 28.336 0.405026 28.5041 0.131237 28.9861C-0.142553 29.4678 0.0258943 30.0803 0.50766 30.3541L16.7539 39.5887C16.9078 39.6763 17.0787 39.7198 17.2496 39.7198C17.4355 39.7198 17.6211 39.6681 17.7841 39.5655L25.2108 34.8889C25.6798 34.5937 25.8205 33.9742 25.5253 33.5054C25.2302 33.0364 24.6106 32.8955 24.1418 33.1909Z" fill="url(#paint6_linear)"/>
    <defs>
        <linearGradient id="paint0_linear" x1="0" y1="0.00976562" x2="0" y2="33.1477" gradientUnits="userSpaceOnUse">
            <stop stop-color="#EF473A"/>
            <stop offset="1" stop-color="#CC2E3E"/>
        </linearGradient>
        <linearGradient id="paint1_linear" x1="34.9111" y1="13.2572" x2="34.9111" y2="19.9405" gradientUnits="userSpaceOnUse">
            <stop stop-color="#EF473A"/>
            <stop offset="1" stop-color="#CC2E3E"/>
        </linearGradient>
        <linearGradient id="paint2_linear" x1="0" y1="20.4524" x2="0" y2="31.6937" gradientUnits="userSpaceOnUse">
            <stop stop-color="#EF473A"/>
            <stop offset="1" stop-color="#CC2E3E"/>
        </linearGradient>
        <linearGradient id="paint3_linear" x1="34.9111" y1="17.2702" x2="34.9111" y2="23.9535" gradientUnits="userSpaceOnUse">
            <stop stop-color="#EF473A"/>
            <stop offset="1" stop-color="#CC2E3E"/>
        </linearGradient>
        <linearGradient id="paint4_linear" x1="0" y1="24.4654" x2="0" y2="35.7067" gradientUnits="userSpaceOnUse">
            <stop stop-color="#EF473A"/>
            <stop offset="1" stop-color="#CC2E3E"/>
        </linearGradient>
        <linearGradient id="paint5_linear" x1="34.9111" y1="21.2833" x2="34.9111" y2="27.9666" gradientUnits="userSpaceOnUse">
            <stop stop-color="#EF473A"/>
            <stop offset="1" stop-color="#CC2E3E"/>
        </linearGradient>
        <linearGradient id="paint6_linear" x1="0" y1="28.4785" x2="0" y2="39.7198" gradientUnits="userSpaceOnUse">
            <stop stop-color="#EF473A"/>
            <stop offset="1" stop-color="#CC2E3E"/>
        </linearGradient>
    </defs>
</svg>
