<svg width="40" height="40" viewBox="0 0 40 40" fill="none" xmlns="http://www.w3.org/2000/svg">
    <path fill-rule="evenodd" clip-rule="evenodd" d="M32.717 21.9656C32.3421 21.7539 31.8664 21.8862 31.6547 22.2613L27.0589 30.4023C26.8472 30.7774 26.9795 31.2529 27.3546 31.4646C27.4757 31.533 27.6073 31.5655 27.7372 31.5655C28.0093 31.5655 28.2735 31.4228 28.4169 31.169L33.0127 23.0279C33.2244 22.6529 33.0921 22.1773 32.717 21.9656Z" fill="url(#paint0_linear)"/>
    <path fill-rule="evenodd" clip-rule="evenodd" d="M31.3379 29.7267C31.3379 28.4369 32.3872 27.3875 33.6771 27.3875C34.9669 27.3875 36.0163 28.4369 36.0163 29.7267C36.0163 31.0165 34.9669 32.0659 33.6771 32.0659C32.3872 32.0659 31.3379 31.0165 31.3379 29.7267ZM32.8973 29.7267C32.8973 30.1566 33.2471 30.5064 33.6771 30.5064C34.107 30.5064 34.4568 30.1566 34.4568 29.7267C34.4568 29.2968 34.107 28.947 33.6771 28.947C33.2471 28.947 32.8973 29.2968 32.8973 29.7267Z" fill="url(#paint1_linear)"/>
    <path fill-rule="evenodd" clip-rule="evenodd" d="M25.0527 22.8269C25.0527 21.5371 26.1021 20.4877 27.3919 20.4877C28.6817 20.4877 29.7311 21.5371 29.7311 22.8269C29.7311 24.1167 28.6817 25.1661 27.3919 25.1661C26.1021 25.1661 25.0527 24.1167 25.0527 22.8269ZM26.6122 22.8269C26.6122 23.2569 26.962 23.6066 27.3919 23.6066C27.8219 23.6066 28.1716 23.2569 28.1716 22.8269C28.1716 22.397 27.8219 22.0472 27.3919 22.0472C26.962 22.0472 26.6122 22.397 26.6122 22.8269Z" fill="url(#paint2_linear)"/>
    <path fill-rule="evenodd" clip-rule="evenodd" d="M31.7639 16.9281C31.7957 16.8431 31.813 16.7511 31.813 16.6551V5.61413H39.1425C39.5731 5.61413 39.9222 5.26497 39.9222 4.8344C39.9222 2.16875 37.7535 9.15527e-05 35.0879 9.15527e-05C34.9288 9.15527e-05 34.7717 0.00827869 34.6165 0.0234054C34.5568 0.00874652 34.4947 9.15527e-05 34.4303 9.15527e-05H9.20078C6.44912 9.15527e-05 4.21053 2.23869 4.21053 4.99035V34.1521H0.779727C0.349084 34.1521 0 34.5013 0 34.9319C0 37.6835 2.2386 39.9221 4.99025 39.9221H26.9787C29.4637 39.9221 31.5159 38.0372 31.7828 35.6222C36.3744 34.9889 39.9222 31.0397 39.9222 26.2768C39.9222 21.5074 36.3648 17.553 31.7639 16.9281ZM30.2767 16.8444C25.1713 16.9568 21.0526 21.145 21.0526 26.2768C21.0526 31.381 25.127 35.551 30.1942 35.7066C29.9039 37.2174 28.5729 38.3627 26.9787 38.3627C25.1729 38.3627 23.7039 36.8936 23.7039 35.0878C23.7039 35.0636 23.7024 35.0398 23.7003 35.0162C23.7032 34.9885 23.705 34.9603 23.705 34.9319C23.705 34.5013 23.3559 34.1521 22.9253 34.1521H5.76998V4.99035C5.76998 3.09857 7.30901 1.55955 9.20078 1.55955H31.5358C30.7406 2.42146 30.2536 3.57194 30.2536 4.8344C30.2536 4.86075 30.255 4.88672 30.2575 4.91237C30.255 4.93802 30.2536 4.96399 30.2536 4.99035V16.6551C30.2536 16.7203 30.2616 16.7838 30.2767 16.8444ZM38.2682 4.05467C37.9174 2.62426 36.625 1.55955 35.0879 1.55955C33.5509 1.55955 32.2584 2.62426 31.9076 4.05467H38.2682ZM4.99025 38.3627C3.36663 38.3627 2.00281 37.229 1.64881 35.7116H22.186C22.3176 36.7273 22.7646 37.6451 23.4267 38.3627H4.99025ZM22.6121 26.2768C22.6121 30.6194 26.145 34.1521 30.4874 34.1521C34.8299 34.1521 38.3627 30.6193 38.3627 26.2768C38.3627 21.9344 34.8299 18.4015 30.4874 18.4015C26.145 18.4015 22.6121 21.9343 22.6121 26.2768Z" fill="url(#paint3_linear)"/>
    <path fill-rule="evenodd" clip-rule="evenodd" d="M8.65918 15V8.55762H9.95996V11.0933H12.5088V8.55762H13.8096V15H12.5088V12.1831H9.95996V15H8.65918ZM15.6729 8.55762H20.1245V13.9189H20.6914V16.4062H19.6104V15H15.5542V16.4062H14.4731V13.9189H15.0181C15.2847 13.3682 15.4604 12.7288 15.5454 12.0007C15.6304 11.2727 15.6729 10.3521 15.6729 9.23877V8.55762ZM16.9121 9.63867C16.9121 11.5957 16.7349 13.0225 16.3804 13.9189H18.8281V9.63867H16.9121ZM25.688 12.6313L26.9492 13.0312C26.7559 13.7344 26.4343 14.2566 25.9846 14.5979C25.5349 14.9392 24.9644 15.1099 24.2729 15.1099C23.4175 15.1099 22.7144 14.8176 22.1636 14.2332C21.6128 13.6487 21.3374 12.8496 21.3374 11.8359C21.3374 10.7637 21.6143 9.93091 22.168 9.33765C22.7217 8.74438 23.4497 8.44775 24.3521 8.44775C25.1401 8.44775 25.7803 8.68066 26.2725 9.14648C26.5654 9.42188 26.7852 9.81738 26.9316 10.333L25.644 10.6406C25.5679 10.3066 25.4089 10.043 25.1672 9.84961C24.9255 9.65625 24.6318 9.55957 24.2861 9.55957C23.8086 9.55957 23.4211 9.73096 23.1238 10.0737C22.8264 10.4165 22.6777 10.9717 22.6777 11.7393C22.6777 12.5537 22.8242 13.1338 23.1172 13.4795C23.4102 13.8252 23.791 13.998 24.2598 13.998C24.6055 13.998 24.9028 13.8882 25.1519 13.6685C25.4009 13.4487 25.5796 13.103 25.688 12.6313Z" fill="url(#paint4_linear)"/>
    <defs>
        <linearGradient id="paint0_linear" x1="14.5807" y1="0.291985" x2="14.5807" y2="39.3037" gradientUnits="userSpaceOnUse">
            <stop stop-color="#EF473A"/>
            <stop offset="1" stop-color="#CC2E3E"/>
        </linearGradient>
        <linearGradient id="paint1_linear" x1="21.9309" y1="16.9837" x2="21.9309" y2="35.7977" gradientUnits="userSpaceOnUse">
            <stop stop-color="#EF473A"/>
            <stop offset="1" stop-color="#CC2E3E"/>
        </linearGradient>
        <linearGradient id="paint2_linear" x1="15.6457" y1="10.084" x2="15.6457" y2="28.8979" gradientUnits="userSpaceOnUse">
            <stop stop-color="#EF473A"/>
            <stop offset="1" stop-color="#CC2E3E"/>
        </linearGradient>
        <linearGradient id="paint3_linear" x1="-80.2733" y1="-88.7788" x2="-80.2733" y2="71.7673" gradientUnits="userSpaceOnUse">
            <stop stop-color="#EF473A"/>
            <stop offset="1" stop-color="#CC2E3E"/>
        </linearGradient>
        <linearGradient id="paint4_linear" x1="-28.1174" y1="-9.2504" x2="-28.1174" y2="22.7546" gradientUnits="userSpaceOnUse">
            <stop stop-color="#EF473A"/>
            <stop offset="1" stop-color="#CC2E3E"/>
        </linearGradient>
    </defs>
</svg>
