<svg width="51" height="40" viewBox="0 0 51 40" fill="none" xmlns="http://www.w3.org/2000/svg">
    <path fill-rule="evenodd" clip-rule="evenodd" d="M4.84526 17.3913H11.3381C11.825 17.3913 12.1496 17.0435 12.1496 16.5217C12.1496 16 11.825 15.6522 11.3381 15.6522H4.84526C4.3583 15.6522 4.03369 16 4.03369 16.5217C4.03369 17.0435 4.3583 17.3913 4.84526 17.3913Z" fill="url(#paint0_linear)"/>
    <path fill-rule="evenodd" clip-rule="evenodd" d="M14.7007 17.3913H21.1935C21.6805 17.3913 22.0051 17.0435 22.0051 16.5217C22.0051 16 21.6805 15.6522 21.1935 15.6522H14.7007C14.2138 15.6522 13.8892 16 13.8892 16.5217C13.8892 17.0435 14.2138 17.3913 14.7007 17.3913Z" fill="url(#paint1_linear)"/>
    <path fill-rule="evenodd" clip-rule="evenodd" d="M4.84526 20.2899H15.396C15.883 20.2899 16.2076 19.942 16.2076 19.4203C16.2076 18.8985 15.883 18.5507 15.396 18.5507H4.84526C4.3583 18.5507 4.03369 18.8985 4.03369 19.4203C4.03369 19.942 4.3583 20.2899 4.84526 20.2899Z" fill="url(#paint2_linear)"/>
    <path fill-rule="evenodd" clip-rule="evenodd" d="M21.1932 18.5507H18.7584C18.2714 18.5507 17.9468 18.8985 17.9468 19.4203C17.9468 19.942 18.2714 20.2899 18.7584 20.2899H21.1932C21.6801 20.2899 22.0047 19.942 22.0047 19.4203C22.0047 18.8985 21.6801 18.5507 21.1932 18.5507Z" fill="url(#paint3_linear)"/>
    <path fill-rule="evenodd" clip-rule="evenodd" d="M49.0767 8.65304C48.5021 7.91834 47.7632 7.51015 46.86 7.42855L44.8896 7.19111V4.89787V3.26528C44.8896 1.46939 43.4118 0 41.6057 0H3.83963C2.03346 -9.56633e-05 0.555664 1.46929 0.555664 3.26528V4.89796V11.4286V29.3878C0.555664 30.8622 1.55212 32.1159 2.90831 32.5177C2.86694 34.169 4.12355 35.6026 5.81013 35.7551L43.7403 40H44.0687C45.7107 40 47.1885 38.7755 47.3526 37.2245L49.8156 11.0204C49.8977 10.204 49.6514 9.30603 49.0767 8.65304ZM2.1977 5.71426H43.2477V7.83674V10.6122H2.1977V5.71426ZM41.6056 1.63259H3.83963C2.9366 1.63259 2.1977 2.36729 2.1977 3.26528V4.08157H43.2476V3.26528C43.2476 2.36729 42.5087 1.63259 41.6056 1.63259ZM2.1977 29.3877V12.2448H43.2477V29.3877C43.2477 30.2857 42.5088 31.0204 41.6057 31.0204H3.92179H3.83973C2.9366 31.0204 2.1977 30.2857 2.1977 29.3877ZM45.7106 36.8979L48.1736 10.6938C48.2558 10.2856 48.0915 9.79583 47.8451 9.46933C47.5988 9.14283 47.1884 8.89793 46.7779 8.89793L44.8895 8.73464V11.4285V29.3878C44.8895 31.1837 43.4118 32.6531 41.6056 32.6531H4.57853C4.6606 33.3877 5.23536 34.0408 6.05633 34.1224L43.9044 38.3673C44.8075 38.4489 45.6285 37.7959 45.7106 36.8979Z" fill="url(#paint4_linear)"/>
    <path fill-rule="evenodd" clip-rule="evenodd" d="M33.5991 24.058C33.5991 26.4592 31.5227 28.4058 28.9614 28.4058C26.4001 28.4058 24.3237 26.4592 24.3237 24.058C24.3237 21.6567 26.4001 19.7101 28.9614 19.7101C31.5227 19.7101 33.5991 21.6567 33.5991 24.058ZM32.0203 24.058C32.0203 25.6418 30.6508 26.9257 28.9614 26.9257C27.272 26.9257 25.9025 25.6418 25.9025 24.058C25.9025 22.4742 27.272 21.1903 28.9614 21.1903C30.6508 21.1903 32.0203 22.4742 32.0203 24.058Z" fill="url(#paint5_linear)"/>
    <path fill-rule="evenodd" clip-rule="evenodd" d="M38.8164 24.058C38.8164 26.4592 36.74 28.4058 34.1787 28.4058C31.6174 28.4058 29.541 26.4592 29.541 24.058C29.541 21.6567 31.6174 19.7101 34.1787 19.7101C36.74 19.7101 38.8164 21.6567 38.8164 24.058ZM37.2376 24.058C37.2376 25.6418 35.8681 26.9257 34.1787 26.9257C32.4893 26.9257 31.1198 25.6418 31.1198 24.058C31.1198 22.4742 32.4893 21.1903 34.1787 21.1903C35.8681 21.1903 37.2376 22.4742 37.2376 24.058Z" fill="url(#paint6_linear)"/>
    <defs>
        <linearGradient id="paint0_linear" x1="4.03369" y1="15.6522" x2="4.03369" y2="17.3913" gradientUnits="userSpaceOnUse">
            <stop stop-color="#EF473A"/>
            <stop offset="1" stop-color="#CC2E3E"/>
        </linearGradient>
        <linearGradient id="paint1_linear" x1="13.8892" y1="15.6522" x2="13.8892" y2="17.3913" gradientUnits="userSpaceOnUse">
            <stop stop-color="#EF473A"/>
            <stop offset="1" stop-color="#CC2E3E"/>
        </linearGradient>
        <linearGradient id="paint2_linear" x1="4.03369" y1="18.5507" x2="4.03369" y2="20.2899" gradientUnits="userSpaceOnUse">
            <stop stop-color="#EF473A"/>
            <stop offset="1" stop-color="#CC2E3E"/>
        </linearGradient>
        <linearGradient id="paint3_linear" x1="17.9468" y1="18.5507" x2="17.9468" y2="20.2899" gradientUnits="userSpaceOnUse">
            <stop stop-color="#EF473A"/>
            <stop offset="1" stop-color="#CC2E3E"/>
        </linearGradient>
        <linearGradient id="paint4_linear" x1="0.555664" y1="0" x2="0.555664" y2="40" gradientUnits="userSpaceOnUse">
            <stop stop-color="#EF473A"/>
            <stop offset="1" stop-color="#CC2E3E"/>
        </linearGradient>
        <linearGradient id="paint5_linear" x1="24.3237" y1="19.7101" x2="24.3237" y2="28.4058" gradientUnits="userSpaceOnUse">
            <stop stop-color="#EF473A"/>
            <stop offset="1" stop-color="#CC2E3E"/>
        </linearGradient>
        <linearGradient id="paint6_linear" x1="29.541" y1="19.7101" x2="29.541" y2="28.4058" gradientUnits="userSpaceOnUse">
            <stop stop-color="#EF473A"/>
            <stop offset="1" stop-color="#CC2E3E"/>
        </linearGradient>
    </defs>
</svg>
