<svg width="40" height="40" viewBox="0 0 40 40" fill="none" xmlns="http://www.w3.org/2000/svg">
    <path fill-rule="evenodd" clip-rule="evenodd" d="M36 18H38.3267C39.296 18 40 18.8333 40 19.9813V20.0993L33.1827 38.7913C32.9987 39.4807 32.32 40 31.5493 40H1.71C1.17333 40 0.678667 39.756 0.352 39.3293C0.117333 39.022 0.000666667 38.6547 0.004 38.2793H0V9.15467C0 8.15067 0.817333 7.33333 1.82133 7.33333H5.33333V0H21.6093L26.8053 5.19533L31.6693 10.0593L31.6694 10.06C31.6694 10.0604 31.6696 10.0607 31.67 10.0607L32 10.3907V12H34.1787C35.1827 12 36 12.8173 36 13.8213V18ZM34.6667 13.8213C34.6667 13.552 34.4473 13.3333 34.1787 13.3333H32V18H34.6667V13.8213ZM22 2.27667L29.724 10H22V2.27667ZM20.6667 1.33333H6.66667V7.33333V19.7233L6.854 19.2087C7.01533 18.6047 7.55667 18.1313 8.206 18.0233C8.298 18.008 8.392 18 8.48733 18H30.6667V12V11.3333H20.6667V1.33333ZM1.33333 9.15467C1.33333 8.88533 1.55267 8.66667 1.82133 8.66667H5.33333V23.3567L1.33333 34.266V9.15467ZM31.5493 38.6667C31.7193 38.6667 31.8687 38.552 31.9127 38.3887L38.6613 19.8793C38.6447 19.6973 38.58 19.3333 38.3267 19.3333H36H32H30.6667H8.48733C8.318 19.3333 8.168 19.448 8.124 19.6113L8.10667 19.666L5.33333 27.2687V27.2653L1.32933 38.2467C1.30467 38.348 1.36933 38.464 1.41133 38.5187C1.45333 38.574 1.548 38.6667 1.71 38.6667H31.5493Z" fill="url(#paint0_linear)"/>
    <path fill-rule="evenodd" clip-rule="evenodd" d="M10.8512 11.9149H17.2342C17.5865 11.9149 17.8725 11.5345 17.8725 11.0638C17.8725 10.5932 17.5865 10.2128 17.2342 10.2128H10.8512C10.4988 10.2128 10.2129 10.5932 10.2129 11.0638C10.2129 11.5345 10.4988 11.9149 10.8512 11.9149Z" fill="url(#paint1_linear)"/>
    <path fill-rule="evenodd" clip-rule="evenodd" d="M10.8512 6.80851H17.2342C17.5865 6.80851 17.8725 6.42809 17.8725 5.95745C17.8725 5.48681 17.5865 5.10638 17.2342 5.10638H10.8512C10.4988 5.10638 10.2129 5.48681 10.2129 5.95745C10.2129 6.42809 10.4988 6.80851 10.8512 6.80851Z" fill="url(#paint2_linear)"/>
    <path fill-rule="evenodd" clip-rule="evenodd" d="M10.8676 16.1702H26.5795C26.9409 16.1702 27.2342 15.7898 27.2342 15.3191C27.2342 14.8485 26.9409 14.4681 26.5795 14.4681H10.8676C10.5062 14.4681 10.2129 14.8485 10.2129 15.3191C10.2129 15.7898 10.5062 16.1702 10.8676 16.1702Z" fill="url(#paint3_linear)"/>
    <defs>
        <linearGradient id="paint0_linear" x1="0" y1="0" x2="0" y2="40" gradientUnits="userSpaceOnUse">
            <stop stop-color="#EF473A"/>
            <stop offset="1" stop-color="#CC2E3E"/>
        </linearGradient>
        <linearGradient id="paint1_linear" x1="10.2129" y1="10.2128" x2="10.2129" y2="11.9149" gradientUnits="userSpaceOnUse">
            <stop stop-color="#EF473A"/>
            <stop offset="1" stop-color="#CC2E3E"/>
        </linearGradient>
        <linearGradient id="paint2_linear" x1="10.2129" y1="5.10638" x2="10.2129" y2="6.80851" gradientUnits="userSpaceOnUse">
            <stop stop-color="#EF473A"/>
            <stop offset="1" stop-color="#CC2E3E"/>
        </linearGradient>
        <linearGradient id="paint3_linear" x1="10.2129" y1="14.4681" x2="10.2129" y2="16.1702" gradientUnits="userSpaceOnUse">
            <stop stop-color="#EF473A"/>
            <stop offset="1" stop-color="#CC2E3E"/>
        </linearGradient>
    </defs>
</svg>
