<?xml version="1.0" encoding="utf-8"?>
<!-- Generator: Adobe Illustrator 20.1.0, SVG Export Plug-In . SVG Version: 6.00 Build 0)  -->
<svg version="1.1" id="Capa_1" xmlns="http://www.w3.org/2000/svg" xmlns:xlink="http://www.w3.org/1999/xlink" x="0px" y="0px"
	 viewBox="0 0 299.8 299.8" style="enable-background:new 0 0 299.8 299.8;fill:#989898" xml:space="preserve">
<path d="M287.2,282.2l-31.8-177.6c-1.3-7.1-7.5-12.4-14.8-12.4h-52.9c9.9-9.8,16.1-23.4,16.1-38.4c0-29.7-24.2-53.9-53.9-53.9
	S96,24.2,96,53.9c0,15,6.2,28.6,16.1,38.4H59.2c-7.3,0-13.5,5.2-14.8,12.4L12.6,282.2c-0.8,4.4,0.4,8.9,3.3,12.3
	c2.8,3.4,7.1,5.4,11.5,5.4h245.1c4.4,0,8.7-2,11.5-5.4S288,286.5,287.2,282.2z M149.9,30c13.2,0,23.9,10.7,23.9,23.9
	s-10.7,23.9-23.9,23.9S126,67,126,53.9C126,40.7,136.7,30,149.9,30z"/>
</svg>
