<svg xmlns="http://www.w3.org/2000/svg" width="206" height="57" viewBox="0 0 206 57">
  <use style="--color_fill: #000;"></use>
    <defs>
        <linearGradient id="a" x1="-1.001%" y1="-14.959%" y2="80.428%">
            <stop offset="0%" stop-color="#EF473A"/>
            <stop offset="100%" stop-color="#CC2E3E"/>
        </linearGradient>
        <linearGradient id="b" x1="25.024%" x2="75.025%" y1="6.682%" y2="93.285%">
            <stop offset="0%" stop-color="#EF473A"/>
            <stop offset="100%" stop-color="#CC2E3E"/>
        </linearGradient>
    </defs>
    <g fill="none" fill-rule="evenodd">
        <text fill="url(#a)" font-family="MuseoSansCyrl-700, Museo Sans Cyrl" font-size="23" font-weight="500">
            <tspan x="67" y="37">allionlogistic</tspan>
        </text>
        <g>
            <circle cx="28.5" cy="28.5" r="28.5" fill="url(#b)"/>
            <g fill="#FFF">
                <path d="M44.349 30.355c.055.027.138.027.166-.028l1.551-1.827c.083-.082.028-.218-.11-.218l-5.32-.246c-.138 0-.193.191-.083.246l3.796 2.073z"/>
                <path fill-rule="nonzero" d="M49.723 20.7c-.637-.573-3.878-3.41-6.87-4.2l-1.164-3.218a.435.435 0 0 0-.221-.273c-.665-.436-3.436-2.236-5.153-2.782a.544.544 0 0 0-.499.082c-.914.682-4.321 3.464-5.291 7.746 0 0-.554 4.145 1.8 5.672 1.83 1.2 3.048 1.337 3.048 1.337l2.3.545 3.407.955s4.35.927 6.177-.137c.693-.409 1.247-1.69 1.524-2.263.055-.137 0-.3-.138-.355l-2.272-.9c-.11-.054-.166-.136-.166-.273l.055-1.5c0-.19.194-.3.36-.245.554.19 1.662.627 2.632 1.064.166.081.36-.028.388-.219.028-.272.083-.654.11-.845.084-.027.056-.136-.027-.191zM38.005 15l-.61-2.155 3.158 1.555.693 2.127L38.005 15z"/>
                <path d="M34.237 27.273C20.358 20.318 32.824 9.109 33.212 9.19c-4.35-.736-10.915 2.127-11.192 9.982-.277 7.718 9.724 12.763 15.32 15 6.704 2.645 5.097 7.063 5.125 7.09.582-.408 1.025-.763 1.773-1.418.028-.027.055-.027.055-.054 3.768-4.064 2.604-6.191-10.056-12.518z"/>
                <path d="M33.323 35.073s-3.158-1.446-6.815-3.546C10.773 20.564 24.292 9.055 24.292 9.055c-4.626 1.963-9.253 2.918-10.14 10.036a.767.767 0 0 0 0 .354c.749 13.528 14.184 17.946 18.007 19.582 5.402 2.21 5.125 6.573 5.125 6.573 2.66-.955 3.075-2.073 3.075-2.073 1.192-2.182-1.69-6.382-7.036-8.454z"/>
                <path d="M26.259 39.273C9.277 32.127 11.715 17.59 11.715 17.59c-.056.354-2.438 4.364-2.438 7.636C8.917 37.173 28.17 43.582 29.195 44.1c2.466 1.282 3.048 3.327 3.075 3.355 0 0 1.025-.355 1.829-.682 1.606-.737.194-4.391-7.84-7.5z"/>
                <path d="M29.555 47.727s-5.623-3.463-10.776-6.109c-5.208-2.673-8.477-7.227-8.477-7.227 2.078 9.518 13.187 13.036 14.46 13.309 1.054.245 5.264.327 4.793.027z"/>
            </g>
        </g>
    </g>
</svg>
