<svg width="13" height="11" viewBox="0 0 13 11" fill="none" xmlns="http://www.w3.org/2000/svg">
    <path fill-rule="evenodd" clip-rule="evenodd" d="M1.24774 3.14857C1.41219 3.26462 1.9079 3.60929 2.73489 4.1824C3.56191 4.7555 4.19546 5.19678 4.63558 5.50625C4.68393 5.54017 4.78666 5.61391 4.94381 5.72758C5.101 5.84131 5.2316 5.93322 5.33552 6.00333C5.43952 6.07341 5.56525 6.15203 5.71282 6.23906C5.86035 6.32601 5.99941 6.39142 6.12999 6.43472C6.26059 6.47838 6.38149 6.5 6.49271 6.5H6.5H6.50732C6.61853 6.5 6.73948 6.47835 6.87008 6.43472C7.00061 6.39142 7.1398 6.32594 7.2872 6.23906C7.43468 6.15193 7.5604 6.07339 7.6644 6.00333C7.7684 5.93322 7.8989 5.84131 8.05614 5.72758C8.21327 5.61381 8.31612 5.54017 8.36448 5.50625C8.80934 5.19678 9.94114 4.41081 11.7595 3.14842C12.1126 2.90187 12.4075 2.60436 12.6444 2.25611C12.8816 1.90801 13 1.54284 13 1.1608C13 0.841541 12.8851 0.568252 12.6553 0.340956C12.4256 0.11361 12.1535 0 11.8393 0H1.16067C0.788295 0 0.50173 0.125731 0.301023 0.377192C0.100341 0.628704 0 0.943081 0 1.3203C0 1.62499 0.133042 1.95518 0.399 2.31064C0.664933 2.66613 0.94794 2.94547 1.24774 3.14857Z" fill="#989898"/>
    <path fill-rule="evenodd" clip-rule="evenodd" d="M12.2744 3.84274C10.6883 4.85104 9.48391 5.63465 8.66185 6.19341C8.38618 6.38411 8.16256 6.53298 7.99082 6.63965C7.81908 6.7464 7.59067 6.85541 7.30528 6.96664C7.01999 7.07804 6.7541 7.13358 6.50741 7.13358H6.50001H6.49272C6.24607 7.13358 5.98004 7.07804 5.69475 6.96664C5.40945 6.85541 5.1809 6.7464 5.00921 6.63965C4.83757 6.53298 4.61387 6.38411 4.33823 6.19341C3.68529 5.74376 2.48349 4.9601 0.732774 3.84274C0.457034 3.67025 0.212802 3.47254 0 3.25V8.65971C0 8.95968 0.113604 9.2162 0.34094 9.42969C0.568224 9.64325 0.841525 9.75 1.16074 9.75H11.8393C12.1585 9.75 12.4318 9.64325 12.6591 9.42969C12.8864 9.21613 13 8.95971 13 8.65971V3.25C12.792 3.46793 12.5503 3.66565 12.2744 3.84274Z" fill="#989898"/>
</svg>
